<?xml version="1.0" standalone="no"?>
<!DOCTYPE svg PUBLIC "-//W3C//DTD SVG 20010904//EN"
 "http://www.w3.org/TR/2001/REC-SVG-20010904/DTD/svg10.dtd">
<svg version="1.0" xmlns="http://www.w3.org/2000/svg"
 width="512.000000pt" height="512.000000pt" viewBox="0 0 512.000000 512.000000"
 preserveAspectRatio="xMidYMid meet">

<g transform="translate(0.000000,512.000000) scale(0.100000,-0.100000)"
fill="#3899e8" stroke="none">
<path d="M2348 3242 c-161 -120 -356 -263 -433 -317 -76 -55 -164 -123 -195
-152 -57 -52 -110 -140 -110 -181 0 -12 -2 -22 -5 -22 -16 0 -288 95 -372 130
-315 131 -612 335 -762 523 -43 55 -62 70 -109 88 -33 13 -88 23 -132 26 -97
5 -151 -20 -195 -92 -27 -43 -30 -57 -33 -151 l-4 -103 37 -68 c325 -593 899
-1011 1640 -1197 120 -30 323 -66 374 -66 20 0 509 63 1086 140 577 77 1053
140 1058 140 4 0 19 11 32 25 l25 24 0 666 0 666 -25 24 c-13 14 -30 25 -38
25 -7 0 -341 20 -743 45 -401 25 -745 45 -766 45 -32 0 -72 -27 -330 -218z
m1105 1 l627 -37 0 -552 0 -552 -27 -6 c-16 -3 -471 -65 -1013 -137 l-985
-131 -145 26 c-421 74 -826 248 -1155 495 -276 209 -585 597 -585 736 0 61 14
85 49 85 55 0 89 -21 146 -89 234 -281 701 -542 1230 -686 54 -14 119 -37 144
-50 25 -14 71 -30 101 -36 169 -36 465 69 786 279 121 79 164 119 164 153 0
49 -42 89 -92 89 -11 0 -75 -36 -142 -80 -269 -179 -563 -298 -681 -276 -44 9
-95 51 -95 80 0 45 49 93 230 226 102 74 300 219 440 323 l255 189 60 -6 c33
-2 342 -22 688 -43z"/>
<path d="M4323 3346 l-28 -24 0 -640 0 -640 24 -26 24 -26 362 0 c351 0 363 1
389 21 l26 20 0 649 0 649 -26 20 c-26 20 -38 21 -385 21 l-358 0 -28 -24z
m627 -666 l0 -520 -245 0 -245 0 0 520 0 520 245 0 245 0 0 -520z"/>
<path d="M4615 2591 c-80 -36 -120 -111 -113 -211 13 -182 243 -256 365 -117
89 101 61 262 -56 324 -55 29 -138 31 -196 4z m125 -166 c26 -32 -13 -81 -47
-59 -35 22 -23 74 17 74 10 0 23 -7 30 -15z"/>
</g>
</svg>
